<?xml version="1.0" standalone="no"?>
<!DOCTYPE svg PUBLIC "-//W3C//DTD SVG 20010904//EN"
 "http://www.w3.org/TR/2001/REC-SVG-20010904/DTD/svg10.dtd">
<svg version="1.0" xmlns="http://www.w3.org/2000/svg"
 width="1280.000000pt" height="853.000000pt" viewBox="0 0 1280.000000 853.000000"
 preserveAspectRatio="xMidYMid meet">
<metadata>
Created by potrace 1.16, written by Peter Selinger 2001-2019
</metadata>
<g transform="translate(0.000000,853.000000) scale(0.100000,-0.100000)"
fill="#000000" stroke="none">
<path d="M3885 5533 c-11 -2 -30 -6 -42 -9 l-23 -4 0 -463 c0 -420 2 -465 18
-496 30 -60 62 -76 150 -75 97 1 122 13 122 60 0 51 -15 74 -50 74 -19 0 -33
7 -40 19 -6 13 -10 176 -10 460 l0 441 -52 -1 c-29 -1 -62 -3 -73 -6z"/>
<path d="M9563 5502 l-93 -14 0 -165 0 -165 -22 7 c-51 17 -187 17 -234 1 -93
-32 -171 -115 -205 -221 -17 -55 -15 -188 4 -255 33 -113 100 -179 203 -200
73 -15 133 -4 200 36 31 19 58 34 59 34 2 0 8 -13 14 -30 l10 -30 85 0 86 0 0
504 c0 278 -3 506 -7 508 -5 2 -50 -2 -100 -10z m-132 -464 l39 -11 0 -173 0
-173 -26 -20 c-36 -29 -90 -44 -129 -37 -84 16 -120 87 -113 225 4 82 7 94 34
127 54 68 114 87 195 62z"/>
<path d="M3070 4995 l0 -495 323 2 322 3 3 54 c2 30 1 65 -3 78 l-5 23 -220 0
-220 0 0 130 0 130 173 2 172 3 3 78 3 77 -176 0 -175 0 0 125 0 125 210 0
210 0 0 80 0 80 -310 0 -310 0 0 -495z"/>
<path d="M4575 5180 c-52 -7 -99 -28 -147 -63 -31 -23 -30 -23 -44 18 -9 29
-11 30 -85 33 -56 2 -79 -1 -88 -11 -8 -11 -11 -101 -9 -333 l3 -319 97 -3 98
-3 2 242 3 242 27 20 c16 12 48 22 81 25 46 4 57 1 83 -21 l29 -25 5 -239 5
-238 93 -3 92 -3 0 240 0 240 29 20 c47 33 111 47 146 30 58 -27 65 -59 65
-306 l0 -223 95 0 95 0 0 243 c0 259 -6 306 -50 367 -66 93 -239 98 -350 10
-46 -36 -53 -37 -74 -5 -18 28 -76 60 -121 67 -16 3 -53 2 -80 -2z"/>
<path d="M5615 5180 c-181 -39 -288 -189 -272 -382 19 -223 199 -352 427 -304
177 37 268 166 258 366 -3 68 -10 98 -31 142 -36 73 -99 133 -164 158 -62 23
-162 32 -218 20z m167 -166 c39 -38 52 -85 51 -184 -1 -145 -46 -213 -142
-214 -59 -1 -94 21 -123 77 -31 60 -32 211 -1 279 40 88 144 109 215 42z"/>
<path d="M7345 5181 c-56 -9 -154 -37 -172 -49 -14 -9 -2 -65 21 -97 12 -17
18 -18 70 -6 85 19 179 18 211 -3 31 -20 47 -58 43 -100 l-3 -31 -105 -6
c-174 -11 -264 -60 -290 -159 -35 -133 57 -243 204 -242 68 1 121 18 173 58
l32 24 9 -32 8 -33 82 -3 82 -3 0 239 c0 269 -8 319 -62 373 -18 17 -51 40
-74 50 -51 21 -159 31 -229 20z m175 -442 c0 -61 -10 -81 -54 -108 -95 -59
-198 9 -155 103 17 37 64 56 142 56 l67 0 0 -51z"/>
<path d="M8160 5175 c-27 -9 -61 -30 -85 -55 -45 -46 -55 -49 -55 -17 -1 63
-6 67 -95 67 -58 0 -84 -4 -86 -12 -2 -7 -3 -158 -1 -335 l3 -323 95 0 94 0 0
225 0 225 41 27 c33 22 56 28 111 31 40 3 71 9 73 16 2 6 6 41 9 78 l5 66 -31
11 c-17 6 -31 11 -32 10 -1 0 -21 -7 -46 -14z"/>
<path d="M8531 5175 c-161 -45 -249 -181 -239 -370 7 -143 80 -248 204 -295
81 -31 229 -31 326 -1 37 12 70 26 73 31 7 12 -14 90 -29 107 -9 10 -21 9 -56
-4 -69 -24 -196 -23 -240 3 -44 25 -80 78 -80 115 l0 29 216 0 216 0 -4 98
c-6 149 -50 225 -156 273 -60 26 -164 33 -231 14z m158 -131 c28 -20 51 -72
51 -114 l0 -30 -125 0 c-118 0 -125 1 -125 20 0 39 33 102 64 121 38 23 104
25 135 3z"/>
<path d="M6060 5159 c0 -15 46 -175 127 -441 l67 -218 91 0 92 0 40 138 c23
75 51 175 64 222 12 47 25 88 29 92 3 4 25 -66 49 -155 24 -89 53 -191 65
-227 l21 -65 89 -3 c49 -2 93 1 98 6 4 4 17 37 27 73 30 106 86 285 175 567 8
23 7 23 -86 20 l-93 -3 -49 -200 c-26 -110 -53 -218 -58 -240 l-11 -40 -33
125 c-19 69 -45 170 -60 224 -37 144 -30 137 -127 134 l-82 -3 -52 -190 c-29
-104 -58 -212 -65 -240 l-12 -50 -49 205 c-27 113 -53 222 -58 243 l-10 37
-94 0 c-63 0 -95 -4 -95 -11z"/>
</g>
</svg>
